<svg width="70" height="34" fill="none" xmlns="http://www.w3.org/2000/svg"><path fill-rule="evenodd" clip-rule="evenodd" d="M17.703 8.76H9.61v2.4h5.74c-.284 3.368-3.086 4.803-5.73 4.803-3.383 0-6.335-2.661-6.335-6.392 0-3.635 2.814-6.433 6.342-6.433 2.723 0 4.327 1.735 4.327 1.735l1.68-1.741S13.479.73 9.543.73C4.531.73.654 4.96.654 9.528c0 4.477 3.647 8.842 9.016 8.842 4.723 0 8.18-3.235 8.18-8.019 0-1.009-.147-1.592-.147-1.592Zm6.662.488c1.633 0 3.18 1.32 3.18 3.447 0 2.082-1.541 3.44-3.188 3.44-1.81 0-3.237-1.45-3.237-3.457 0-1.964 1.41-3.43 3.245-3.43ZM24.33 7.02c-3.32 0-5.7 2.595-5.7 5.623 0 3.072 2.31 5.716 5.74 5.716 3.105 0 5.65-2.374 5.65-5.65 0-3.755-2.96-5.69-5.69-5.69Zm12.43 2.228c1.634 0 3.181 1.32 3.181 3.447 0 2.082-1.54 3.44-3.188 3.44-1.809 0-3.236-1.45-3.236-3.457 0-1.964 1.41-3.43 3.244-3.43Zm-.032-2.227c-3.32 0-5.7 2.595-5.7 5.623 0 3.072 2.308 5.716 5.739 5.716 3.106 0 5.65-2.374 5.65-5.65 0-3.755-2.96-5.69-5.689-5.69Zm12.38 2.229c1.494 0 3.028 1.275 3.028 3.454 0 2.215-1.531 3.435-3.061 3.435-1.625 0-3.137-1.319-3.137-3.414 0-2.177 1.57-3.476 3.17-3.476Zm-.221-2.223c-3.047 0-5.443 2.67-5.443 5.665 0 3.413 2.777 5.676 5.39 5.676 1.617 0 2.476-.642 3.11-1.378v1.118c0 1.956-1.188 3.128-2.98 3.128-1.732 0-2.6-1.288-2.902-2.019l-2.18.911c.774 1.634 2.33 3.34 5.1 3.34 3.03 0 5.34-1.91 5.34-5.912V7.368h-2.378v.96c-.73-.788-1.73-1.301-3.057-1.301ZM64.99 9.194c1.035 0 1.78.55 2.097 1.21l-5.077 2.123c-.219-1.643 1.338-3.333 2.98-3.333Zm-.1-2.181c-2.875 0-5.288 2.287-5.288 5.662 0 3.572 2.69 5.69 5.564 5.69 2.4 0 3.871-1.313 4.75-2.489l-1.96-1.304c-.508.79-1.359 1.56-2.778 1.56-1.593 0-2.326-.872-2.78-1.717L70 11.26l-.395-.924c-.734-1.81-2.448-3.323-4.715-3.323Zm-8.913 11.015h2.498V1.316h-2.498v16.712Z" fill="#fff"/><path d="m6.602 21.24 1.887 3.35 3.77.76-2.603 2.83.442 3.82-3.496-1.6L3.105 32l.442-3.82-2.602-2.83 3.769-.76 1.888-3.35Zm14.326 0 1.888 3.35 3.77.76-2.603 2.83.442 3.82-3.497-1.6-3.496 1.6.442-3.82-2.602-2.83 3.769-.76 1.887-3.35Zm14.327 0 1.888 3.35 3.769.76-2.602 2.83.441 3.82-3.496-1.6L31.76 32l.441-3.82-2.602-2.83 3.77-.76 1.887-3.35Zm14.327 0 1.888 3.35 3.769.76-2.602 2.83.441 3.82-3.496-1.6-3.496 1.6.441-3.82-2.602-2.83 3.77-.76 1.887-3.35Zm14.326 0 1.888 3.35 3.769.76-2.602 2.83.441 3.82-3.496-1.6-3.496 1.6.441-3.82-2.602-2.83 3.769-.76 1.888-3.35Z" fill="#fff"/></svg>