<svg width="108" height="10" fill="none" xmlns="http://www.w3.org/2000/svg"><path fill-rule="evenodd" clip-rule="evenodd" d="M9.035 3.617H4.747V4.64H7.79c-.15 1.433-1.635 2.044-3.037 2.044-1.793 0-3.357-1.133-3.357-2.72 0-1.547 1.491-2.738 3.361-2.738 1.443 0 2.293.739 2.293.739l.891-.741S6.797.2 4.71.2C2.056.2 0 2 0 3.945c0 1.904 1.933 3.762 4.779 3.762 2.502 0 4.334-1.377 4.334-3.412 0-.43-.078-.678-.078-.678Zm3.531.209c.866 0 1.686.561 1.686 1.466 0 .886-.817 1.464-1.69 1.464-.959 0-1.715-.617-1.715-1.47 0-.836.747-1.46 1.72-1.46Zm-.017-.948c-1.76 0-3.02 1.104-3.02 2.393 0 1.307 1.222 2.432 3.04 2.432 1.646 0 2.995-1.01 2.995-2.404 0-1.598-1.569-2.421-3.015-2.421Zm6.586.948c.866 0 1.686.561 1.686 1.466 0 .886-.817 1.464-1.69 1.464-.959 0-1.715-.617-1.715-1.47 0-.836.747-1.46 1.72-1.46Zm-.017-.948c-1.76 0-3.02 1.104-3.02 2.393 0 1.307 1.222 2.432 3.04 2.432 1.646 0 2.995-1.01 2.995-2.404 0-1.598-1.569-2.421-3.015-2.421Zm6.561.948c.792 0 1.605.543 1.605 1.47 0 .942-.812 1.462-1.623 1.462-.86 0-1.662-.562-1.662-1.453 0-.926.832-1.479 1.68-1.479Zm-.117-.946c-1.615 0-2.885 1.136-2.885 2.411 0 1.452 1.472 2.415 2.857 2.415.857 0 1.312-.273 1.648-.586v.476c0 .832-.63 1.33-1.58 1.33-.917 0-1.378-.547-1.537-.858l-1.155.387c.41.696 1.234 1.421 2.702 1.421 1.606 0 2.83-.812 2.83-2.515V3.025h-1.26v.41c-.387-.336-.917-.555-1.62-.555Zm8.533.923c.55 0 .944.234 1.112.515l-2.69.903c-.117-.7.708-1.418 1.578-1.418Zm-.052-.928c-1.524 0-2.803.973-2.803 2.409 0 1.52 1.426 2.42 2.949 2.42 1.271 0 2.052-.558 2.517-1.058l-1.039-.555c-.269.336-.72.664-1.472.664-.844 0-1.233-.371-1.473-.73l4.029-1.343-.21-.394c-.389-.77-1.297-1.413-2.498-1.413ZM29.32 7.562h1.323V.45h-1.324v7.11Z" fill="#0C3"/><path d="m46 1.491.96 2.2.128.295.32.005 2.574.047-1.949 1.192-.352.215.145.387.757 2.027-2.34-1.301L46 6.423l-.243.135-2.34 1.301.757-2.027.145-.387-.352-.215-1.949-1.192 2.573-.047.321-.005.129-.295.959-2.2Zm13 0 .96 2.2.128.295.32.005 2.574.047-1.949 1.192-.352.215.145.387.757 2.027-2.34-1.301L59 6.423l-.243.135-2.34 1.301.757-2.027.145-.387-.352-.215-1.949-1.192 2.573-.047.321-.005.129-.295.959-2.2Zm13.5-.08 1.084 2.294.133.281.31.005 2.807.048L74.74 5.22l-.382.216.165.407.83 2.053-2.624-1.347-.228-.117-.228.117-2.625 1.347.831-2.053.165-.407-.382-.216-2.095-1.182 2.806-.048.311-.005.133-.28L72.5 1.41ZM87 1.343l1.208 2.375.137.269.301.004 3.04.048-2.242 1.175-.412.216.186.427.903 2.071-2.906-1.384L87 6.44l-.215.103-2.906 1.384.903-2.071.186-.427-.412-.216-2.241-1.175 3.039-.048.301-.004.137-.269L87 1.343Zm14.5.068 1.084 2.294.133.281.31.005 2.807.048-2.095 1.182-.382.216.165.407.831 2.053-2.625-1.347-.228-.117-.228.117-2.625 1.347.831-2.053.165-.407-.382-.216-2.095-1.182 2.806-.048.311-.005.133-.28L101.5 1.41Z" fill="#0C3" stroke="#0C3"/></svg>