<svg width="70" height="40" fill="none" xmlns="http://www.w3.org/2000/svg"><g clip-path="url(#a)"><path d="M1.603 8.695H6.16v18.322h8.89V31H1.603V8.695ZM16.29 23.671c0-1.53.35-2.867 1.051-4.015a7.484 7.484 0 0 1 2.9-2.676c1.232-.637 2.623-.956 4.174-.956 1.55 0 2.931.319 4.142.956 1.232.637 2.199 1.53 2.9 2.676.722 1.148 1.083 2.486 1.083 4.015 0 1.509-.361 2.847-1.083 4.015-.701 1.147-1.668 2.04-2.9 2.677-1.21.637-2.591.956-4.142.956-1.55 0-2.942-.319-4.174-.956a7.484 7.484 0 0 1-2.9-2.677c-.701-1.168-1.052-2.506-1.052-4.015Zm4.206 0c0 .829.17 1.562.51 2.199a4.123 4.123 0 0 0 1.433 1.466c.595.34 1.254.51 1.976.51s1.38-.17 1.975-.51a3.873 3.873 0 0 0 1.402-1.466c.361-.637.542-1.37.542-2.199 0-.828-.18-1.561-.542-2.198a3.59 3.59 0 0 0-1.402-1.466 3.911 3.911 0 0 0-1.975-.51c-.722 0-1.381.17-1.976.51a3.806 3.806 0 0 0-1.434 1.466c-.34.637-.51 1.37-.51 2.198Zm14.44 8.349h4.046c.021.637.191 1.179.51 1.625.319.467.754.828 1.306 1.083.553.255 1.2.383 1.944.383.68 0 1.317-.16 1.912-.478.616-.32 1.104-.808 1.466-1.466.382-.659.573-1.487.573-2.486V16.343h3.983V30.68c0 1.806-.36 3.293-1.083 4.461-.701 1.169-1.647 2.018-2.836 2.55-1.19.552-2.485.828-3.887.828-1.7 0-3.123-.276-4.27-.829-1.147-.53-2.029-1.295-2.645-2.294-.595-.977-.935-2.103-1.02-3.377Zm-.287-8.476c0-1.636.329-3.006.987-4.11.659-1.127 1.53-1.976 2.613-2.55a7.251 7.251 0 0 1 3.442-.86c1.232 0 2.315.297 3.25.892.956.595 1.7 1.455 2.23 2.581.553 1.105.829 2.454.829 4.047 0 1.572-.276 2.92-.829 4.046-.53 1.126-1.274 1.987-2.23 2.582-.935.573-2.018.86-3.25.86a7.25 7.25 0 0 1-3.442-.86c-1.083-.574-1.954-1.413-2.613-2.518-.658-1.126-.987-2.496-.987-4.11Zm4.27 0c0 .87.18 1.614.541 2.23.361.595.85 1.052 1.466 1.37a4.24 4.24 0 0 0 1.975.478 3.83 3.83 0 0 0 1.785-.446 3.699 3.699 0 0 0 1.434-1.37c.382-.616.573-1.37.573-2.262 0-.68-.106-1.275-.318-1.785a3.452 3.452 0 0 0-.893-1.274 3.652 3.652 0 0 0-1.21-.765 3.449 3.449 0 0 0-1.37-.287c-.702 0-1.36.16-1.976.478a3.58 3.58 0 0 0-1.466 1.402c-.361.595-.542 1.339-.542 2.23Zm14.773.127c0-1.53.35-2.867 1.052-4.015a7.484 7.484 0 0 1 2.9-2.676c1.232-.637 2.623-.956 4.174-.956 1.55 0 2.931.319 4.142.956 1.232.637 2.199 1.53 2.9 2.676.722 1.148 1.083 2.486 1.083 4.015 0 1.509-.361 2.847-1.083 4.015-.701 1.147-1.668 2.04-2.9 2.677-1.21.637-2.592.956-4.142.956-1.551 0-2.942-.319-4.174-.956a7.484 7.484 0 0 1-2.9-2.677c-.701-1.168-1.052-2.506-1.052-4.015Zm4.206 0c0 .829.17 1.562.51 2.199.361.616.84 1.104 1.434 1.466a3.91 3.91 0 0 0 1.976.51c.722 0 1.38-.17 1.975-.51a3.873 3.873 0 0 0 1.402-1.466c.361-.637.542-1.37.542-2.199 0-.828-.18-1.561-.542-2.198a3.591 3.591 0 0 0-1.402-1.466 3.911 3.911 0 0 0-1.975-.51 3.91 3.91 0 0 0-1.976.51 3.807 3.807 0 0 0-1.434 1.466c-.34.637-.51 1.37-.51 2.198Z" fill="#000"/></g><defs><clipPath id="a"><path fill="#fff" d="M0 0h70v40H0z"/></clipPath></defs></svg>