<svg width="24" height="24" fill="none" xmlns="http://www.w3.org/2000/svg"><path d="M16.47 1.333H7.53c-3.882 0-6.197 2.315-6.197 6.198v8.938c0 3.883 2.315 6.198 6.198 6.198h8.938c3.883 0 6.198-2.315 6.198-6.198V7.531c0-3.883-2.315-6.198-6.198-6.198Zm-6.635 13.76-2.4 2.4a.791.791 0 0 1-.566.235.774.774 0 0 1-.565-.235l-.8-.8a.786.786 0 0 1 0-1.13c.31-.31.81-.31 1.13 0l.235.234 1.835-1.834c.31-.31.81-.31 1.13 0 .31.309.31.82 0 1.13Zm0-7.466-2.4 2.4a.791.791 0 0 1-.566.234.774.774 0 0 1-.565-.234l-.8-.8a.786.786 0 0 1 0-1.131c.31-.31.81-.31 1.13 0l.235.235 1.835-1.835c.31-.31.81-.31 1.13 0 .31.31.31.821 0 1.13Zm8.096 9.3h-5.6a.806.806 0 0 1-.8-.8c0-.436.362-.8.8-.8h5.6a.8.8 0 0 1 0 1.6Zm0-7.466h-5.6a.806.806 0 0 1-.8-.8c0-.437.362-.8.8-.8h5.6a.8.8 0 0 1 0 1.6Z" fill="#fff"/></svg>