<svg width="22" height="16" viewBox="0 0 22 16" fill="none" xmlns="http://www.w3.org/2000/svg">
<path d="M22 8C22 7.44772 21.5523 7 21 7H1C0.447716 7 0 7.44772 0 8C0 8.55228 0.447715 9 1 9H21C21.5523 9 22 8.55228 22 8Z" fill="white"/>
<path d="M22 15C22 14.4477 21.5523 14 21 14H1C0.447716 14 0 14.4477 0 15C0 15.5523 0.447715 16 1 16H21C21.5523 16 22 15.5523 22 15Z" fill="white"/>
<path d="M22 1C22 0.447715 21.5523 0 21 0H1C0.447716 0 0 0.447715 0 1C0 1.55228 0.447715 2 1 2H21C21.5523 2 22 1.55228 22 1Z" fill="white"/>
</svg>
