<svg width="12" height="12" viewBox="0 0 12 12" fill="none" xmlns="http://www.w3.org/2000/svg">
<g clip-path="url(#clip0_1_296)">
<path fill-rule="evenodd" clip-rule="evenodd" d="M6 12C9.31371 12 12 9.31371 12 6C12 2.68629 9.31371 0 6 0C2.68629 0 0 2.68629 0 6C0 9.31371 2.68629 12 6 12ZM6.00002 3C6.27616 3 6.50002 3.22386 6.50002 3.5V6.2C6.50002 6.47614 6.27616 6.7 6.00002 6.7C5.72388 6.7 5.50002 6.47614 5.50002 6.2V3.5C5.50002 3.22386 5.72388 3 6.00002 3ZM6.50003 8C6.50003 8.27614 6.27617 8.5 6.00003 8.5C5.72388 8.5 5.50003 8.27614 5.50003 8C5.50003 7.72386 5.72388 7.5 6.00003 7.5C6.27617 7.5 6.50003 7.72386 6.50003 8Z" fill="#FF7171"/>
</g>
<defs>
<clipPath id="clip0_1_296">
<rect width="12" height="12" fill="white"/>
</clipPath>
</defs>
</svg>
