<svg width="108" height="10" viewBox="0 0 108 10" fill="none" xmlns="http://www.w3.org/2000/svg">
<path fill-rule="evenodd" clip-rule="evenodd" d="M9.03546 3.61741H4.74721V4.63913H7.78865C7.63834 6.07189 6.15366 6.68292 4.75238 6.68292C2.95947 6.68292 1.39496 5.55031 1.39496 3.96275C1.39496 2.41622 2.8864 1.22529 4.75625 1.22529C6.19902 1.22529 7.04918 1.96368 7.04918 1.96368L7.93996 1.22287C7.93996 1.22287 6.79651 0.200684 4.71074 0.200684C2.0549 0.200568 0 2.00045 0 3.94453C0 5.84943 1.93273 7.70706 4.7785 7.70706C7.28117 7.70694 9.11312 6.33043 9.11312 4.29483C9.11312 3.86535 9.03546 3.61718 9.03546 3.61718V3.61741Z" fill="#00CC33"/>
<path fill-rule="evenodd" clip-rule="evenodd" d="M12.5662 3.82553C13.4316 3.82553 14.2516 4.38723 14.2516 5.2923C14.2516 6.17835 13.435 6.75595 12.5623 6.75595C11.6034 6.75595 10.8467 6.13939 10.8467 5.28538C10.8467 4.44959 11.5937 3.82553 12.5662 3.82553ZM12.5487 2.87793C10.7891 2.87793 9.52808 3.98241 9.52808 5.27074C9.52808 6.57786 10.7513 7.70298 12.5694 7.70298C14.2153 7.70298 15.5639 6.6929 15.5639 5.29875C15.5639 3.70082 13.9952 2.87793 12.5487 2.87793Z" fill="#00CC33"/>
<path fill-rule="evenodd" clip-rule="evenodd" d="M19.1352 3.82553C20.0007 3.82553 20.8207 4.38723 20.8207 5.2923C20.8207 6.17835 20.004 6.75595 19.1313 6.75595C18.1725 6.75595 17.4159 6.13939 17.4159 5.28538C17.4159 4.44959 18.163 3.82553 19.1352 3.82553ZM19.1178 2.87793C17.3583 2.87793 16.0972 3.98241 16.0972 5.27074C16.0972 6.57786 17.3203 7.70298 19.1385 7.70298C20.7844 7.70298 22.1328 6.6929 22.1328 5.29875C22.1328 3.70082 20.5643 2.87793 19.1178 2.87793Z" fill="#00CC33"/>
<path fill-rule="evenodd" clip-rule="evenodd" d="M25.6789 3.82613C26.4708 3.82613 27.2839 4.36892 27.2839 5.29601C27.2839 6.23843 26.4724 6.75782 25.6614 6.75782C24.8005 6.75782 23.9993 6.19647 23.9993 5.305C23.9993 4.37872 24.8313 3.82613 25.6789 3.82613ZM25.5619 2.88037C23.9469 2.88037 22.6772 4.01621 22.6772 5.29105C22.6772 6.74306 24.1492 7.70611 25.5341 7.70611C26.3905 7.70611 26.8459 7.43316 27.1823 7.11998V7.59557C27.1823 8.42803 26.5526 8.92655 25.6025 8.92655C24.6848 8.92644 24.2245 8.37858 24.0646 8.06759L22.9097 8.45523C23.3194 9.15063 24.1441 9.876 25.6122 9.876C27.218 9.876 28.4419 9.06383 28.4419 7.36066V3.02538H27.1823V3.43411C26.7949 3.09892 26.2651 2.88037 25.5619 2.88037Z" fill="#00CC33"/>
<path fill-rule="evenodd" clip-rule="evenodd" d="M34.0952 3.80252C34.6442 3.80252 35.0393 4.03674 35.2071 4.31776L32.5165 5.22076C32.4005 4.52167 33.2254 3.80252 34.0952 3.80252ZM34.0427 2.87451C32.5191 2.87451 31.24 3.84782 31.24 5.28392C31.24 6.8036 32.6658 7.70486 34.189 7.70486C35.4603 7.70486 36.2406 7.1464 36.7064 6.64603L35.6675 6.09113C35.398 6.42702 34.9474 6.75518 34.1954 6.75518C33.3509 6.75518 32.9624 6.3838 32.7217 6.02416L36.7508 4.68177L36.5416 4.28837C36.1523 3.51804 35.2443 2.87463 34.0428 2.87463L34.0427 2.87451Z" fill="#00CC33"/>
<path fill-rule="evenodd" clip-rule="evenodd" d="M29.3193 7.56181H30.6428V0.450684H29.3193V7.56181Z" fill="#00CC33"/>
<path d="M46 1.49146L46.9594 3.69135L47.0877 3.98554L47.4086 3.99138L49.9818 4.03823L48.0331 5.23016L47.6812 5.44536L47.8256 5.83172L48.5831 7.85899L46.243 6.55789L46 6.4228L45.757 6.55789L43.4169 7.85899L44.1744 5.83172L44.3188 5.44536L43.9669 5.23016L42.0182 4.03823L44.5914 3.99138L44.9123 3.98554L45.0406 3.69135L46 1.49146Z" fill="#00CC33" stroke="#00CC33"/>
<path d="M59 1.49146L59.9594 3.69135L60.0877 3.98554L60.4086 3.99138L62.9818 4.03823L61.0331 5.23016L60.6812 5.44536L60.8256 5.83172L61.5831 7.85899L59.243 6.55789L59 6.4228L58.757 6.55789L56.4169 7.85899L57.1744 5.83172L57.3188 5.44536L56.9669 5.23016L55.0182 4.03823L57.5914 3.99138L57.9123 3.98554L58.0406 3.69135L59 1.49146Z" fill="#00CC33" stroke="#00CC33"/>
<path d="M72.5 1.41116L73.5838 3.70506L73.7166 3.98617L74.0275 3.99139L76.8341 4.03856L74.7393 5.2213L74.3568 5.43722L74.5216 5.84432L75.3526 7.89687L72.7283 6.55005L72.5 6.43288L72.2717 6.55005L69.6474 7.89687L70.4784 5.84432L70.6432 5.43722L70.2607 5.2213L68.1659 4.03856L70.9725 3.99139L71.2834 3.98617L71.4162 3.70506L72.5 1.41116Z" fill="#00CC33" stroke="#00CC33"/>
<path d="M87 1.34329L88.2084 3.71821L88.345 3.9867L88.6462 3.9914L91.6854 4.03883L89.4441 5.21386L89.032 5.42994L89.2179 5.85651L90.1212 7.92846L87.2151 6.54352L87 6.44101L86.7849 6.54352L83.8788 7.92846L84.7821 5.85651L84.968 5.42994L84.5559 5.21386L82.3146 4.03883L85.3538 3.9914L85.655 3.9867L85.7916 3.71821L87 1.34329Z" fill="#00CC33" stroke="#00CC33"/>
<path d="M101.5 1.41116L102.584 3.70506L102.717 3.98617L103.027 3.99139L105.834 4.03856L103.739 5.2213L103.357 5.43722L103.522 5.84432L104.353 7.89687L101.728 6.55005L101.5 6.43288L101.272 6.55005L98.6474 7.89687L99.4784 5.84432L99.6432 5.43722L99.2607 5.2213L97.1659 4.03856L99.9725 3.99139L100.283 3.98617L100.416 3.70506L101.5 1.41116Z" fill="#00CC33" stroke="#00CC33"/>
</svg>
