<svg width="34" height="34" viewBox="0 0 34 34" fill="none" xmlns="http://www.w3.org/2000/svg">
<g clip-path="url(#clip0_9_193)">
<path d="M0 4C0 1.79086 1.79086 0 4 0H30C32.2091 0 34 1.79086 34 4V30C34 32.2091 32.2091 34 30 34H4C1.79086 34 0 32.2091 0 30V4Z" fill="#200069"/>
<rect x="7" y="7" width="20" height="20" fill="white"/>
<path d="M29.019 4.97737C22.3791 -1.66053 11.6153 -1.65894 4.97737 4.98103C-1.66053 11.621 -1.65894 22.3848 4.98103 29.0227C11.621 35.6606 22.3848 35.659 29.0227 29.019C30.601 27.4402 31.853 25.5659 32.707 23.5033C33.561 21.4406 34.0004 19.2299 34 16.9974C33.9997 14.765 33.5597 12.5544 32.705 10.492C31.8504 8.42961 30.5979 6.55573 29.019 4.97737ZM25.7459 23.6808L25.7437 23.6831V23.6774L24.8823 24.5331C24.3346 25.0877 23.6531 25.4918 22.9037 25.7062C22.1542 25.9206 21.3622 25.9381 20.604 25.7571C19.0504 25.3413 17.5735 24.6793 16.2293 23.7964C14.9804 22.9983 13.8232 22.0653 12.7783 21.0141C11.817 20.0597 10.9533 19.0119 10.2 17.8861C9.376 16.6747 8.7238 15.3551 8.26196 13.9647C8.00237 13.1639 7.97089 12.3066 8.17107 11.4889C8.37125 10.6712 8.79516 9.92543 9.39531 9.33508L10.404 8.32644C10.6844 8.04474 11.1401 8.04375 11.4217 8.32418L11.424 8.32644L14.6086 11.5111C14.8903 11.7915 14.8913 12.2472 14.6109 12.5288L14.6086 12.5311L12.7386 14.4011C12.202 14.9318 12.1346 15.7752 12.58 16.3844C13.2563 17.3126 14.0048 18.1861 14.8183 18.9968C15.7254 19.9078 16.7114 20.7365 17.765 21.4731C18.3737 21.8978 19.199 21.8262 19.7256 21.3031L21.5332 19.4671C21.8137 19.1855 22.2694 19.1845 22.551 19.4649L22.5532 19.4671L25.7436 22.6631C26.0254 22.9435 26.0264 23.3991 25.7459 23.6808Z" fill="#200069"/>
</g>
<defs>
<clipPath id="clip0_9_193">
<rect width="34" height="34" fill="white"/>
</clipPath>
</defs>
</svg>
