<svg width="30" height="30" fill="none" xmlns="http://www.w3.org/2000/svg"><g clip-path="url(#a)"><path d="M27.363 7.031h-3.576a4.372 4.372 0 0 0 .881-2.636A4.4 4.4 0 0 0 20.273 0c-1.46 0-2.535.523-3.387 1.646-.712.94-1.233 2.25-1.886 3.908-.653-1.657-1.174-2.969-1.886-3.908C12.262.523 11.186 0 9.727 0a4.4 4.4 0 0 0-4.395 4.395c0 .988.328 1.901.881 2.636H2.637A2.64 2.64 0 0 0 0 9.668v1.758a2.64 2.64 0 0 0 1.758 2.485v13.452A2.64 2.64 0 0 0 4.395 30h21.21a2.64 2.64 0 0 0 2.637-2.637V13.911A2.64 2.64 0 0 0 30 11.426V9.668a2.64 2.64 0 0 0-2.637-2.637Zm-10.75-.777c1.347-3.416 1.859-4.496 3.66-4.496a2.64 2.64 0 0 1 2.637 2.637 2.64 2.64 0 0 1-2.637 2.636h-3.967c.108-.27.21-.53.307-.777ZM9.727 1.758c1.801 0 2.313 1.08 3.66 4.496l.307.777H9.727A2.64 2.64 0 0 1 7.09 4.395a2.64 2.64 0 0 1 2.637-2.637Zm1.757 26.484h-7.09a.88.88 0 0 1-.878-.879v-13.3h7.968v14.18Zm0-15.937H2.637a.88.88 0 0 1-.88-.88V9.669a.88.88 0 0 1 .88-.879h8.847v3.516Zm5.274 15.937h-3.516V8.79h3.516v19.453Zm9.726-.879a.88.88 0 0 1-.879.88h-7.09v-14.18h7.97v13.3Zm1.758-15.937a.88.88 0 0 1-.879.879h-8.847V8.789h8.847a.88.88 0 0 1 .88.879v1.758Z" fill="#fff"/></g><defs><clipPath id="a"><path fill="#fff" d="M0 0h30v30H0z"/></clipPath></defs></svg>