<svg width="141" height="78" fill="none" xmlns="http://www.w3.org/2000/svg"><g clip-path="url(#a)"><path d="M1.546 62V16.204H7.09v40.877h21.29V62H1.546Zm48.657.716c-3.1 0-5.821-.738-8.162-2.214-2.325-1.476-4.144-3.54-5.456-6.194-1.297-2.654-1.945-5.755-1.945-9.302 0-3.578.648-6.701 1.945-9.37 1.312-2.668 3.131-4.74 5.456-6.216 2.341-1.476 5.062-2.214 8.162-2.214 3.101 0 5.814.738 8.14 2.214 2.34 1.476 4.159 3.548 5.456 6.216 1.312 2.669 1.968 5.792 1.968 9.37 0 3.547-.656 6.648-1.968 9.302-1.297 2.653-3.116 4.718-5.456 6.194-2.326 1.476-5.039 2.214-8.14 2.214Zm0-4.741c2.356 0 4.294-.604 5.814-1.811 1.52-1.208 2.646-2.795 3.377-4.763.73-1.968 1.095-4.1 1.095-6.395 0-2.296-.365-4.435-1.095-6.418-.73-1.983-1.856-3.585-3.377-4.808-1.52-1.222-3.458-1.833-5.814-1.833-2.355 0-4.293.61-5.814 1.833-1.52 1.223-2.646 2.825-3.376 4.808-.73 1.983-1.096 4.122-1.096 6.418 0 2.295.365 4.427 1.096 6.395.73 1.968 1.856 3.555 3.376 4.763 1.521 1.207 3.459 1.811 5.814 1.811Zm37.483 17.62c-2.549 0-4.74-.327-6.574-.983-1.834-.641-3.362-1.491-4.584-2.55-1.208-1.043-2.17-2.161-2.885-3.354l4.204-2.951a33.258 33.258 0 0 0 1.812 2.146c.73.82 1.729 1.528 2.996 2.125 1.282.61 2.959.916 5.031.916 2.773 0 5.061-.67 6.865-2.012 1.804-1.342 2.706-3.444 2.706-6.306V55.65h-.448c-.387.627-.939 1.402-1.654 2.326-.7.91-1.715 1.722-3.041 2.437-1.312.701-3.086 1.051-5.322 1.051-2.773 0-5.263-.656-7.469-1.967-2.191-1.312-3.928-3.22-5.21-5.725-1.267-2.504-1.9-5.545-1.9-9.123 0-3.518.618-6.582 1.855-9.19 1.237-2.624 2.96-4.652 5.166-6.083 2.206-1.446 4.755-2.169 7.647-2.169 2.236 0 4.01.373 5.322 1.118 1.327.73 2.34 1.565 3.041 2.505.716.924 1.267 1.684 1.655 2.28h.537v-5.456h5.098v35.33c0 2.953-.671 5.353-2.013 7.201-1.326 1.864-3.115 3.228-5.366 4.092-2.236.88-4.726 1.32-7.469 1.32Zm-.179-18.872c2.117 0 3.906-.485 5.367-1.454 1.46-.969 2.571-2.362 3.332-4.181.76-1.819 1.14-3.995 1.14-6.53 0-2.474-.373-4.658-1.118-6.551-.745-1.894-1.848-3.377-3.31-4.45-1.46-1.074-3.264-1.61-5.41-1.61-2.237 0-4.1.566-5.591 1.7-1.476 1.132-2.587 2.653-3.332 4.56-.73 1.909-1.095 4.026-1.095 6.351 0 2.386.372 4.495 1.118 6.328.76 1.82 1.878 3.25 3.354 4.294 1.49 1.029 3.339 1.543 5.545 1.543Zm38.64 5.993c-3.1 0-5.821-.738-8.162-2.214-2.325-1.476-4.144-3.54-5.456-6.194-1.297-2.654-1.945-5.755-1.945-9.302 0-3.578.648-6.701 1.945-9.37 1.312-2.668 3.131-4.74 5.456-6.216 2.341-1.476 5.062-2.214 8.162-2.214 3.101 0 5.814.738 8.14 2.214 2.34 1.476 4.159 3.548 5.456 6.216 1.312 2.669 1.968 5.792 1.968 9.37 0 3.547-.656 6.648-1.968 9.302-1.297 2.653-3.116 4.718-5.456 6.194-2.326 1.476-5.039 2.214-8.14 2.214Zm0-4.741c2.356 0 4.294-.604 5.814-1.811 1.521-1.208 2.646-2.795 3.377-4.763.73-1.968 1.095-4.1 1.095-6.395 0-2.296-.365-4.435-1.095-6.418-.731-1.983-1.856-3.585-3.377-4.808-1.52-1.222-3.458-1.833-5.814-1.833-2.355 0-4.293.61-5.814 1.833-1.52 1.223-2.646 2.825-3.376 4.808-.731 1.983-1.096 4.122-1.096 6.418 0 2.295.365 4.427 1.096 6.395.73 1.968 1.856 3.555 3.376 4.763 1.521 1.207 3.459 1.811 5.814 1.811Z" fill="#000"/></g><defs><clipPath id="a"><path fill="#fff" d="M0 0h141v78H0z"/></clipPath></defs></svg>