<svg width="30" height="30" fill="none" xmlns="http://www.w3.org/2000/svg"><path d="M28.005 15.389a.879.879 0 0 1 0-.777l1.12-2.29A2.604 2.604 0 0 0 28 8.865L25.75 7.67a.88.88 0 0 1-.457-.629l-.44-2.509a2.604 2.604 0 0 0-2.942-2.137l-2.523.356a.88.88 0 0 1-.739-.24L16.82.74a2.604 2.604 0 0 0-3.637 0L11.35 2.51a.88.88 0 0 1-.74.24l-2.52-.354a2.604 2.604 0 0 0-2.942 2.137l-.44 2.51a.88.88 0 0 1-.457.628L2 8.864a2.604 2.604 0 0 0-1.124 3.459l1.119 2.289a.879.879 0 0 1 0 .777l-1.12 2.289A2.604 2.604 0 0 0 2 21.136l2.25 1.194a.88.88 0 0 1 .457.629l.44 2.51a2.603 2.603 0 0 0 2.942 2.137l2.523-.357a.88.88 0 0 1 .739.24l1.83 1.771a2.607 2.607 0 0 0 3.637 0l1.831-1.771a.88.88 0 0 1 .74-.24l2.522.357a2.604 2.604 0 0 0 2.942-2.138l.44-2.51a.88.88 0 0 1 .457-.628L28 21.136a2.604 2.604 0 0 0 1.124-3.458l-1.119-2.29Zm-.816 4.219-2.25 1.194a2.598 2.598 0 0 0-1.35 1.858l-.44 2.51a.881.881 0 0 1-.996.722l-2.522-.356a2.597 2.597 0 0 0-2.185.71l-1.83 1.77a.881.881 0 0 1-1.231 0l-1.831-1.77a2.596 2.596 0 0 0-2.185-.71l-2.522.356a.881.881 0 0 1-.996-.723l-.44-2.51a2.598 2.598 0 0 0-1.35-1.857l-2.25-1.194a.881.881 0 0 1-.38-1.17l1.118-2.29a2.598 2.598 0 0 0 0-2.296l-1.119-2.29a.881.881 0 0 1 .38-1.17L5.062 9.2a2.598 2.598 0 0 0 1.35-1.859l.44-2.509a.881.881 0 0 1 .996-.723l2.522.357c.804.113 1.6-.145 2.185-.71l1.83-1.771a.881.881 0 0 1 1.231 0l1.831 1.77c.584.566 1.38.824 2.185.71l2.522-.356a.881.881 0 0 1 .995.723l.44 2.51c.141.8.633 1.477 1.35 1.858l2.251 1.194a.88.88 0 0 1 .38 1.17l-1.118 2.289a2.598 2.598 0 0 0 0 2.296l1.119 2.29a.881.881 0 0 1-.38 1.17Z" fill="#fff"/><path d="M21.321 8.679a.865.865 0 0 0-1.223 0L8.678 20.098a.865.865 0 0 0 1.224 1.224l11.42-11.42a.865.865 0 0 0 0-1.223ZM11.54 7.214a3.176 3.176 0 0 0-3.172 3.172 3.176 3.176 0 0 0 3.172 3.172 3.176 3.176 0 0 0 3.173-3.172 3.176 3.176 0 0 0-3.173-3.172Zm0 4.614a1.443 1.443 0 0 1-1.441-1.442c0-.795.646-1.442 1.441-1.442s1.442.647 1.442 1.442c0 .795-.647 1.442-1.442 1.442Zm6.921 4.614a3.176 3.176 0 0 0-3.172 3.172 3.176 3.176 0 0 0 3.172 3.172 3.176 3.176 0 0 0 3.173-3.172 3.176 3.176 0 0 0-3.173-3.172Zm0 4.614a1.444 1.444 0 0 1-1.442-1.442 1.443 1.443 0 1 1 1.442 1.442Z" fill="#fff"/></svg>