<svg width="34" height="34" fill="none" xmlns="http://www.w3.org/2000/svg"><g clip-path="url(#a)"><path d="M0 4a4 4 0 0 1 4-4h26a4 4 0 0 1 4 4v26a4 4 0 0 1-4 4H4a4 4 0 0 1-4-4V4Z" fill="#200069"/><path fill="#fff" d="M7 7h20v20H7z"/><path d="M29.019 4.977c-6.64-6.638-17.404-6.636-24.042.004-6.638 6.64-6.636 17.404.004 24.042 6.64 6.638 17.404 6.636 24.042-.004a17 17 0 0 0-.004-24.042Zm-3.273 18.704-.002.002v-.006l-.862.856a4.534 4.534 0 0 1-4.278 1.224 15.062 15.062 0 0 1-4.375-1.96 20.21 20.21 0 0 1-3.45-2.783 20.373 20.373 0 0 1-2.579-3.128 15.863 15.863 0 0 1-1.938-3.921 4.533 4.533 0 0 1 1.133-4.63l1.009-1.009a.72.72 0 0 1 1.018-.002l.002.002 3.185 3.185a.72.72 0 0 1 .002 1.018l-.002.002-1.87 1.87a1.524 1.524 0 0 0-.159 1.983 21.872 21.872 0 0 0 2.238 2.613c.907.91 1.893 1.74 2.947 2.476a1.535 1.535 0 0 0 1.96-.17l1.808-1.836a.72.72 0 0 1 1.018-.002l.002.002 3.19 3.196a.72.72 0 0 1 .003 1.018Z" fill="#200069"/></g><defs><clipPath id="a"><path fill="#fff" d="M0 0h34v34H0z"/></clipPath></defs></svg>