<svg width="24" height="24" fill="none" xmlns="http://www.w3.org/2000/svg"><path d="M8.082 6.78a.92.92 0 0 0-1.302 0c-2.88 2.872-2.88 7.56 0 10.44a.926.926 0 0 0 1.501-.298.919.919 0 0 0-.2-1.003 5.549 5.549 0 0 1 0-7.837.92.92 0 0 0 0-1.301Zm11.75 13.053c4.32-4.32 4.32-11.344 0-15.664a.92.92 0 1 0-1.301 1.301c3.6 3.6 3.6 9.462 0 13.053a.93.93 0 0 0 0 1.31.926.926 0 0 0 1.301 0Z" fill="#fff"/><path d="M15.918 17.22a.926.926 0 0 0 1.302 0 7.387 7.387 0 0 0 0-10.44.92.92 0 1 0-1.301 1.302 5.549 5.549 0 0 1 0 7.837.918.918 0 0 0 0 1.302Zm-11.75 2.613a.925.925 0 0 0 1.301 0 .93.93 0 0 0 0-1.31c-3.6-3.591-3.6-9.453 0-13.053a.92.92 0 1 0-1.301-1.3c-4.32 4.32-4.32 11.344 0 15.664Zm7.837-10.876a3.041 3.041 0 1 0-.002 6.082 3.041 3.041 0 0 0 .002-6.082Z" fill="#fff"/></svg>